{
    "asset" : {
        "generator" : "Khronos glTF Blender I/O v1.6.16",
        "version" : "2.0"
    },
    "scene" : 0,
    "scenes" : [
        {
            "name" : "Scene",
            "nodes" : [
                0
            ]
        }
    ],
    "nodes" : [
        {
            "mesh" : 0,
            "name" : "Sphere.015"
        }
    ],
    "materials" : [
        {
            "doubleSided" : true,
            "name" : "Bionic arm",
            "pbrMetallicRoughness" : {
                "baseColorTexture" : {
                    "index" : 0
                },
                "metallicFactor" : 0,
                "roughnessFactor" : 0.5
            }
        },
        {
            "doubleSided" : true,
            "name" : "Screw Baked",
            "pbrMetallicRoughness" : {
                "baseColorTexture" : {
                    "index" : 1
                },
                "metallicFactor" : 0,
                "roughnessFactor" : 0.5
            }
        },
        {
            "doubleSided" : true,
            "name" : "Japanese side Baked",
            "pbrMetallicRoughness" : {
                "baseColorTexture" : {
                    "index" : 2
                },
                "metallicFactor" : 0,
                "roughnessFactor" : 0.5
            }
        },
        {
            "doubleSided" : true,
            "name" : "Japanese button Baked",
            "pbrMetallicRoughness" : {
                "baseColorTexture" : {
                    "index" : 3
                },
                "metallicFactor" : 0,
                "roughnessFactor" : 0.5
            }
        }
    ],
    "meshes" : [
        {
            "name" : "Sphere.015",
            "primitives" : [
                {
                    "attributes" : {
                        "POSITION" : 0,
                        "NORMAL" : 1,
                        "TEXCOORD_0" : 2
                    },
                    "indices" : 3,
                    "material" : 0
                },
                {
                    "attributes" : {
                        "POSITION" : 4,
                        "NORMAL" : 5,
                        "TEXCOORD_0" : 6
                    },
                    "indices" : 7,
                    "material" : 1
                },
                {
                    "attributes" : {
                        "POSITION" : 8,
                        "NORMAL" : 9,
                        "TEXCOORD_0" : 10
                    },
                    "indices" : 11,
                    "material" : 2
                },
                {
                    "attributes" : {
                        "POSITION" : 12,
                        "NORMAL" : 13,
                        "TEXCOORD_0" : 14
                    },
                    "indices" : 15,
                    "material" : 3
                }
            ]
        }
    ],
    "textures" : [
        {
            "sampler" : 0,
            "source" : 0
        },
        {
            "sampler" : 0,
            "source" : 1
        },
        {
            "sampler" : 0,
            "source" : 2
        },
        {
            "sampler" : 0,
            "source" : 3
        }
    ],
    "images" : [
        {
            "mimeType" : "image/png",
            "name" : "Bionic Color",
            "uri" : "textures/Bionic%20Color.png"
        },
        {
            "mimeType" : "image/png",
            "name" : "Screw Baked",
            "uri" : "textures/Screw%20Baked.png"
        },
        {
            "mimeType" : "image/png",
            "name" : "Japanese side Baked",
            "uri" : "textures/Japanese%20side%20Baked.png"
        },
        {
            "mimeType" : "image/png",
            "name" : "Japanese button Baked",
            "uri" : "textures/Japanese%20button%20Baked.png"
        }
    ],
    "accessors" : [
        {
            "bufferView" : 0,
            "componentType" : 5126,
            "count" : 19186,
            "max" : [
                0.015477494336664677,
                0.008437484502792358,
                0.06883798539638519
            ],
            "min" : [
                -0.021364359185099602,
                -0.014605631120502949,
                -0.058180876076221466
            ],
            "type" : "VEC3"
        },
        {
            "bufferView" : 1,
            "componentType" : 5126,
            "count" : 19186,
            "type" : "VEC3"
        },
        {
            "bufferView" : 2,
            "componentType" : 5126,
            "count" : 19186,
            "type" : "VEC2"
        },
        {
            "bufferView" : 3,
            "componentType" : 5123,
            "count" : 87657,
            "type" : "SCALAR"
        },
        {
            "bufferView" : 4,
            "componentType" : 5126,
            "count" : 850,
            "max" : [
                0.013569547794759274,
                0.0068884352222085,
                0.04064309224486351
            ],
            "min" : [
                -0.014785503037273884,
                -0.004195275716483593,
                -0.04896016791462898
            ],
            "type" : "VEC3"
        },
        {
            "bufferView" : 5,
            "componentType" : 5126,
            "count" : 850,
            "type" : "VEC3"
        },
        {
            "bufferView" : 6,
            "componentType" : 5126,
            "count" : 850,
            "type" : "VEC2"
        },
        {
            "bufferView" : 7,
            "componentType" : 5123,
            "count" : 1428,
            "type" : "SCALAR"
        },
        {
            "bufferView" : 8,
            "componentType" : 5126,
            "count" : 769,
            "max" : [
                2.3823788069421425e-05,
                0.006946751847863197,
                0.041177570819854736
            ],
            "min" : [
                -0.010329208336770535,
                -0.0003644435200840235,
                -0.00400333059951663
            ],
            "type" : "VEC3"
        },
        {
            "bufferView" : 9,
            "componentType" : 5126,
            "count" : 769,
            "type" : "VEC3"
        },
        {
            "bufferView" : 10,
            "componentType" : 5126,
            "count" : 769,
            "type" : "VEC2"
        },
        {
            "bufferView" : 11,
            "componentType" : 5123,
            "count" : 3840,
            "type" : "SCALAR"
        },
        {
            "bufferView" : 12,
            "componentType" : 5126,
            "count" : 250,
            "max" : [
                0.004697381053119898,
                0.008738330565392971,
                0.06018655374646187
            ],
            "min" : [
                -0.005141820292919874,
                0.006910412572324276,
                0.05038536712527275
            ],
            "type" : "VEC3"
        },
        {
            "bufferView" : 13,
            "componentType" : 5126,
            "count" : 250,
            "type" : "VEC3"
        },
        {
            "bufferView" : 14,
            "componentType" : 5126,
            "count" : 250,
            "type" : "VEC2"
        },
        {
            "bufferView" : 15,
            "componentType" : 5123,
            "count" : 1200,
            "type" : "SCALAR"
        }
    ],
    "bufferViews" : [
        {
            "buffer" : 0,
            "byteLength" : 230232,
            "byteOffset" : 0
        },
        {
            "buffer" : 0,
            "byteLength" : 230232,
            "byteOffset" : 230232
        },
        {
            "buffer" : 0,
            "byteLength" : 153488,
            "byteOffset" : 460464
        },
        {
            "buffer" : 0,
            "byteLength" : 175314,
            "byteOffset" : 613952
        },
        {
            "buffer" : 0,
            "byteLength" : 10200,
            "byteOffset" : 789268
        },
        {
            "buffer" : 0,
            "byteLength" : 10200,
            "byteOffset" : 799468
        },
        {
            "buffer" : 0,
            "byteLength" : 6800,
            "byteOffset" : 809668
        },
        {
            "buffer" : 0,
            "byteLength" : 2856,
            "byteOffset" : 816468
        },
        {
            "buffer" : 0,
            "byteLength" : 9228,
            "byteOffset" : 819324
        },
        {
            "buffer" : 0,
            "byteLength" : 9228,
            "byteOffset" : 828552
        },
        {
            "buffer" : 0,
            "byteLength" : 6152,
            "byteOffset" : 837780
        },
        {
            "buffer" : 0,
            "byteLength" : 7680,
            "byteOffset" : 843932
        },
        {
            "buffer" : 0,
            "byteLength" : 3000,
            "byteOffset" : 851612
        },
        {
            "buffer" : 0,
            "byteLength" : 3000,
            "byteOffset" : 854612
        },
        {
            "buffer" : 0,
            "byteLength" : 2000,
            "byteOffset" : 857612
        },
        {
            "buffer" : 0,
            "byteLength" : 2400,
            "byteOffset" : 859612
        }
    ],
    "samplers" : [
        {
            "magFilter" : 9729,
            "minFilter" : 9987
        }
    ],
    "buffers" : [
        {
            "byteLength" : 862012,
            "uri" : "Bionic arm.bin"
        }
    ]
}
